<svg width="116" height="24" viewBox="0 0 116 24" fill="none" xmlns="http://www.w3.org/2000/svg">
<path d="M0.776 18V0.959999H12.224V3.864H4.088V8.256H10.856V10.944H4.088V18H0.776ZM13.7081 13.296V5.424H16.9241V12.6C16.9241 13.56 17.1001 14.288 17.4521 14.784C17.8041 15.264 18.3241 15.504 19.0121 15.504C19.4281 15.504 19.8361 15.424 20.2361 15.264C20.6521 15.088 21.0281 14.832 21.3641 14.496C21.7161 14.16 22.0121 13.736 22.2521 13.224V5.424H25.4681V14.4C25.4681 14.736 25.5241 14.976 25.6361 15.12C25.7641 15.264 25.9641 15.352 26.2361 15.384V18C25.9161 18.048 25.6441 18.08 25.4201 18.096C25.2121 18.128 25.0201 18.144 24.8441 18.144C24.2681 18.144 23.7961 18.016 23.4281 17.76C23.0761 17.488 22.8681 17.12 22.8041 16.656L22.7321 15.648C22.1721 16.496 21.4521 17.144 20.5721 17.592C19.6921 18.024 18.7241 18.24 17.6681 18.24C16.3721 18.24 15.3881 17.824 14.7161 16.992C14.0441 16.144 13.7081 14.912 13.7081 13.296ZM36.227 8.208C35.251 8.208 34.379 8.4 33.611 8.784C32.843 9.152 32.291 9.688 31.955 10.392V18H28.739V5.424H31.691V8.112C32.139 7.248 32.707 6.568 33.395 6.072C34.083 5.576 34.811 5.304 35.579 5.256C35.755 5.256 35.891 5.256 35.987 5.256C36.083 5.256 36.163 5.264 36.227 5.28V8.208ZM49.7832 18H46.5672V10.944C46.5672 9.936 46.3912 9.2 46.0392 8.736C45.6872 8.272 45.1992 8.04 44.5752 8.04C44.1432 8.04 43.7032 8.152 43.2552 8.376C42.8232 8.6 42.4312 8.912 42.0792 9.312C41.7272 9.696 41.4712 10.144 41.3112 10.656V18H38.0952V5.424H40.9992V7.752C41.3192 7.208 41.7272 6.752 42.2232 6.384C42.7192 6 43.2872 5.712 43.9272 5.52C44.5832 5.312 45.2712 5.208 45.9912 5.208C46.7752 5.208 47.4152 5.352 47.9112 5.64C48.4232 5.912 48.8072 6.288 49.0632 6.768C49.3352 7.232 49.5192 7.76 49.6152 8.352C49.7272 8.944 49.7832 9.544 49.7832 10.152V18ZM52.6546 18V5.424H55.8706V18H52.6546ZM52.6546 3.672V0.48H55.8706V3.672H52.6546ZM69.3108 5.424C69.1988 5.312 68.9908 5.16 68.6868 4.968C68.3988 4.776 68.0388 4.592 67.6068 4.416C67.1908 4.24 66.7348 4.088 66.2388 3.96C65.7428 3.816 65.2388 3.744 64.7268 3.744C63.8308 3.744 63.1508 3.912 62.6868 4.248C62.2388 4.584 62.0148 5.056 62.0148 5.664C62.0148 6.128 62.1588 6.496 62.4468 6.768C62.7348 7.04 63.1668 7.272 63.7428 7.464C64.3188 7.656 65.0388 7.864 65.9028 8.088C67.0228 8.36 67.9908 8.696 68.8068 9.096C69.6388 9.48 70.2708 9.992 70.7028 10.632C71.1508 11.256 71.3748 12.088 71.3748 13.128C71.3748 14.04 71.2068 14.824 70.8708 15.48C70.5348 16.12 70.0708 16.64 69.4788 17.04C68.8868 17.44 68.2148 17.736 67.4628 17.928C66.7108 18.104 65.9108 18.192 65.0628 18.192C64.2148 18.192 63.3668 18.104 62.5188 17.928C61.6708 17.752 60.8548 17.504 60.0708 17.184C59.2868 16.848 58.5668 16.448 57.9108 15.984L59.3748 13.128C59.5188 13.272 59.7748 13.464 60.1428 13.704C60.5108 13.928 60.9588 14.16 61.4868 14.4C62.0148 14.624 62.5908 14.816 63.2148 14.976C63.8388 15.136 64.4708 15.216 65.1108 15.216C66.0068 15.216 66.6868 15.064 67.1508 14.76C67.6148 14.456 67.8468 14.024 67.8468 13.464C67.8468 12.952 67.6628 12.552 67.2948 12.264C66.9268 11.976 66.4148 11.728 65.7588 11.52C65.1028 11.296 64.3268 11.056 63.4308 10.8C62.3588 10.496 61.4628 10.16 60.7428 9.792C60.0228 9.408 59.4868 8.928 59.1348 8.352C58.7828 7.776 58.6068 7.056 58.6068 6.192C58.6068 5.024 58.8788 4.048 59.4228 3.264C59.9828 2.464 60.7348 1.864 61.6788 1.464C62.6228 1.048 63.6708 0.839999 64.8228 0.839999C65.6228 0.839999 66.3748 0.927999 67.0788 1.104C67.7988 1.28 68.4708 1.512 69.0948 1.8C69.7188 2.088 70.2788 2.4 70.7748 2.736L69.3108 5.424ZM85.2817 18H82.0657V10.944C82.0657 9.968 81.8737 9.24 81.4897 8.76C81.1217 8.28 80.6097 8.04 79.9537 8.04C79.5697 8.04 79.1617 8.152 78.7297 8.376C78.2977 8.6 77.9057 8.912 77.5537 9.312C77.2177 9.696 76.9697 10.144 76.8097 10.656V18H73.5937V0.48H76.8097V7.752C77.2737 6.952 77.9057 6.328 78.7057 5.88C79.5057 5.432 80.3777 5.208 81.3217 5.208C82.1377 5.208 82.8017 5.352 83.3137 5.64C83.8257 5.912 84.2257 6.288 84.5137 6.768C84.8017 7.232 85.0017 7.76 85.1137 8.352C85.2257 8.928 85.2817 9.528 85.2817 10.152V18ZM93.9611 18.24C92.9371 18.24 92.0171 18.072 91.2011 17.736C90.3851 17.384 89.6891 16.904 89.1131 16.296C88.5531 15.688 88.1211 14.992 87.8171 14.208C87.5131 13.424 87.3611 12.6 87.3611 11.736C87.3611 10.856 87.5131 10.024 87.8171 9.24C88.1211 8.456 88.5531 7.76 89.1131 7.152C89.6891 6.544 90.3851 6.072 91.2011 5.736C92.0171 5.384 92.9371 5.208 93.9611 5.208C94.9851 5.208 95.8971 5.384 96.6971 5.736C97.5131 6.072 98.2091 6.544 98.7851 7.152C99.3611 7.76 99.7931 8.456 100.081 9.24C100.385 10.024 100.537 10.856 100.537 11.736C100.537 12.6 100.385 13.424 100.081 14.208C99.7931 14.992 99.3611 15.688 98.7851 16.296C98.2251 16.904 97.5371 17.384 96.7211 17.736C95.9051 18.072 94.9851 18.24 93.9611 18.24ZM90.6731 11.736C90.6731 12.472 90.8171 13.128 91.1051 13.704C91.3931 14.264 91.7851 14.704 92.2811 15.024C92.7771 15.344 93.3371 15.504 93.9611 15.504C94.5691 15.504 95.1211 15.344 95.6171 15.024C96.1131 14.688 96.5051 14.24 96.7931 13.68C97.0971 13.104 97.2491 12.448 97.2491 11.712C97.2491 10.992 97.0971 10.344 96.7931 9.768C96.5051 9.192 96.1131 8.744 95.6171 8.424C95.1211 8.104 94.5691 7.944 93.9611 7.944C93.3371 7.944 92.7771 8.112 92.2811 8.448C91.7851 8.768 91.3931 9.216 91.1051 9.792C90.8171 10.352 90.6731 11 90.6731 11.736ZM110.319 18.24C109.343 18.24 108.479 18.024 107.727 17.592C106.991 17.144 106.415 16.544 105.999 15.792V23.112H102.783V5.424H105.591V7.584C106.071 6.848 106.679 6.272 107.415 5.856C108.151 5.424 108.991 5.208 109.935 5.208C110.783 5.208 111.559 5.376 112.263 5.712C112.983 6.048 113.607 6.52 114.135 7.128C114.663 7.72 115.071 8.408 115.359 9.192C115.663 9.96 115.815 10.792 115.815 11.688C115.815 12.904 115.575 14.008 115.095 15C114.631 15.992 113.983 16.784 113.151 17.376C112.335 17.952 111.391 18.24 110.319 18.24ZM109.239 15.504C109.735 15.504 110.183 15.4 110.583 15.192C110.983 14.984 111.327 14.704 111.615 14.352C111.919 13.984 112.143 13.576 112.287 13.128C112.447 12.664 112.527 12.184 112.527 11.688C112.527 11.16 112.439 10.672 112.263 10.224C112.103 9.776 111.863 9.384 111.543 9.048C111.223 8.696 110.847 8.424 110.415 8.232C109.999 8.04 109.543 7.944 109.047 7.944C108.743 7.944 108.431 8 108.111 8.112C107.807 8.208 107.511 8.352 107.223 8.544C106.935 8.736 106.679 8.96 106.455 9.216C106.247 9.472 106.095 9.752 105.999 10.056V13.008C106.191 13.472 106.447 13.896 106.767 14.28C107.103 14.664 107.487 14.968 107.919 15.192C108.351 15.4 108.791 15.504 109.239 15.504Z" fill="white"/>
</svg>
