<svg width="113" height="23" viewBox="0 0 113 23" fill="none" xmlns="http://www.w3.org/2000/svg">
<path d="M0.968 18V1.488H11.768V4.272H4.376V8.736H10.88V11.52H4.376V18H0.968ZM18.2321 18.192C17.4001 18.192 16.7281 18.088 16.2161 17.88C15.7041 17.672 15.3121 17.368 15.0401 16.968C14.7841 16.568 14.6081 16.072 14.5121 15.48C14.4161 14.888 14.3681 14.2 14.3681 13.416V5.76H17.5361V12.24C17.5361 12.976 17.5601 13.56 17.6081 13.992C17.6561 14.424 17.7521 14.744 17.8961 14.952C18.0401 15.16 18.2561 15.296 18.5441 15.36C18.8321 15.408 19.2161 15.432 19.6961 15.432C20.2081 15.432 20.6241 15.376 20.9441 15.264C21.2641 15.136 21.4961 14.944 21.6401 14.688C21.8001 14.416 21.9041 14.072 21.9521 13.656C22.0001 13.224 22.0241 12.704 22.0241 12.096V5.76H25.1921V18H22.2401L22.1441 16.464H21.9281C21.7361 16.848 21.4641 17.176 21.1121 17.448C20.7761 17.704 20.3681 17.888 19.8881 18C19.4081 18.128 18.8561 18.192 18.2321 18.192ZM28.5946 18V5.76H31.5706L31.6666 7.872H31.8586C32.0666 7.264 32.3466 6.792 32.6986 6.456C33.0666 6.12 33.5066 5.888 34.0186 5.76C34.5306 5.632 35.1146 5.568 35.7706 5.568V8.592C34.7306 8.592 33.9146 8.736 33.3226 9.024C32.7466 9.312 32.3386 9.784 32.0986 10.44C31.8746 11.096 31.7626 11.984 31.7626 13.104V18H28.5946ZM38.0634 18V5.76H41.0394L41.1354 7.296H41.3274C41.5514 6.896 41.8234 6.568 42.1434 6.312C42.4794 6.056 42.8874 5.872 43.3674 5.76C43.8634 5.632 44.4234 5.568 45.0474 5.568C45.8794 5.568 46.5434 5.672 47.0394 5.88C47.5514 6.088 47.9434 6.392 48.2154 6.792C48.4874 7.192 48.6634 7.688 48.7434 8.28C48.8394 8.872 48.8874 9.56 48.8874 10.344V18H45.7194V11.52C45.7194 10.784 45.6954 10.2 45.6474 9.768C45.5994 9.336 45.5034 9.016 45.3594 8.808C45.2154 8.6 44.9994 8.472 44.7114 8.424C44.4234 8.36 44.0394 8.328 43.5594 8.328C43.0474 8.328 42.6314 8.392 42.3114 8.52C42.0074 8.632 41.7754 8.824 41.6154 9.096C41.4714 9.352 41.3674 9.696 41.3034 10.128C41.2554 10.544 41.2314 11.056 41.2314 11.664V18H38.0634ZM52.2419 3V0.167999H55.5299V3H52.2419ZM52.2899 18V5.76H55.4819V18H52.2899ZM64.9713 18.192C64.3633 18.192 63.6913 18.176 62.9553 18.144C62.2353 18.112 61.5313 18.064 60.8433 18C60.1553 17.952 59.5233 17.896 58.9473 17.832V15.12C59.5393 15.168 60.1393 15.216 60.7473 15.264C61.3713 15.312 61.9633 15.352 62.5233 15.384C63.0833 15.4 63.5633 15.408 63.9633 15.408C64.7793 15.408 65.4113 15.376 65.8593 15.312C66.3073 15.232 66.6433 15.12 66.8673 14.976C67.0433 14.848 67.1633 14.712 67.2273 14.568C67.2913 14.408 67.3313 14.224 67.3473 14.016C67.3633 13.792 67.3713 13.544 67.3713 13.272C67.3713 12.904 67.3473 12.6 67.2993 12.36C67.2673 12.12 67.2033 11.936 67.1073 11.808C67.0113 11.664 66.8513 11.56 66.6273 11.496C66.4193 11.432 66.1473 11.384 65.8113 11.352L62.1153 10.896C61.3793 10.8 60.7713 10.632 60.2913 10.392C59.8273 10.152 59.4593 9.832 59.1873 9.432C58.9153 9.032 58.7233 8.56 58.6113 8.016C58.5153 7.472 58.4673 6.856 58.4673 6.168C58.4673 5.08 58.6193 4.216 58.9233 3.576C59.2273 2.936 59.6513 2.448 60.1953 2.112C60.7553 1.776 61.4113 1.56 62.1633 1.464C62.9153 1.352 63.7313 1.296 64.6113 1.296C65.2513 1.296 65.9073 1.32 66.5793 1.368C67.2513 1.4 67.8833 1.448 68.4753 1.512C69.0673 1.576 69.5633 1.656 69.9633 1.752V4.392C69.5633 4.328 69.0993 4.272 68.5713 4.224C68.0433 4.176 67.4913 4.144 66.9153 4.128C66.3393 4.096 65.7953 4.08 65.2833 4.08C64.5313 4.08 63.9313 4.112 63.4833 4.176C63.0513 4.224 62.7153 4.312 62.4753 4.44C62.2033 4.6 62.0353 4.808 61.9713 5.064C61.9233 5.32 61.8993 5.64 61.8993 6.024C61.8993 6.504 61.9313 6.872 61.9953 7.128C62.0593 7.368 62.2113 7.536 62.4513 7.632C62.6913 7.728 63.0673 7.808 63.5793 7.872L67.2753 8.304C67.7233 8.352 68.1393 8.432 68.5233 8.544C68.9073 8.656 69.2513 8.832 69.5553 9.072C69.8593 9.312 70.1073 9.648 70.2993 10.08C70.4113 10.304 70.4993 10.568 70.5633 10.872C70.6273 11.16 70.6753 11.488 70.7073 11.856C70.7553 12.224 70.7793 12.632 70.7793 13.08C70.7793 14.008 70.6833 14.784 70.4913 15.408C70.3153 16.032 70.0593 16.528 69.7233 16.896C69.3873 17.264 68.9713 17.544 68.4753 17.736C67.9953 17.928 67.4593 18.048 66.8673 18.096C66.2753 18.16 65.6433 18.192 64.9713 18.192ZM73.7821 18V0.167999H76.9501V7.2H77.1421C77.3501 6.816 77.6221 6.504 77.9581 6.264C78.2941 6.024 78.6941 5.856 79.1581 5.76C79.6221 5.648 80.1501 5.592 80.7421 5.592C81.5741 5.592 82.2461 5.696 82.7581 5.904C83.2701 6.096 83.6621 6.392 83.9341 6.792C84.2061 7.192 84.3821 7.688 84.4621 8.28C84.5581 8.872 84.6061 9.56 84.6061 10.344V18H81.4381V11.52C81.4381 10.784 81.4141 10.2 81.3661 9.768C81.3181 9.336 81.2221 9.016 81.0781 8.808C80.9341 8.6 80.7181 8.472 80.4301 8.424C80.1421 8.36 79.7581 8.328 79.2781 8.328C78.7661 8.328 78.3501 8.392 78.0301 8.52C77.7261 8.632 77.4941 8.824 77.3341 9.096C77.1901 9.352 77.0861 9.696 77.0221 10.128C76.9741 10.544 76.9501 11.056 76.9501 11.664V18H73.7821ZM93.1927 18.192C92.1367 18.192 91.2567 18.128 90.5527 18C89.8487 17.872 89.2967 17.664 88.8967 17.376C88.4967 17.088 88.2007 16.704 88.0087 16.224C87.8327 15.744 87.7127 15.144 87.6487 14.424C87.6007 13.704 87.5767 12.848 87.5767 11.856C87.5767 10.864 87.6007 10.016 87.6487 9.312C87.7127 8.592 87.8327 7.992 88.0087 7.512C88.2007 7.032 88.4967 6.648 88.8967 6.36C89.2967 6.072 89.8487 5.872 90.5527 5.76C91.2567 5.632 92.1367 5.568 93.1927 5.568C94.2487 5.568 95.1207 5.632 95.8087 5.76C96.5127 5.872 97.0647 6.072 97.4647 6.36C97.8807 6.648 98.1767 7.032 98.3527 7.512C98.5447 7.992 98.6647 8.592 98.7127 9.312C98.7767 10.016 98.8087 10.864 98.8087 11.856C98.8087 12.848 98.7767 13.704 98.7127 14.424C98.6647 15.144 98.5447 15.744 98.3527 16.224C98.1767 16.704 97.8807 17.088 97.4647 17.376C97.0647 17.664 96.5127 17.872 95.8087 18C95.1207 18.128 94.2487 18.192 93.1927 18.192ZM93.1927 15.624C93.7847 15.624 94.2487 15.584 94.5847 15.504C94.9367 15.424 95.1767 15.264 95.3047 15.024C95.4487 14.768 95.5367 14.384 95.5687 13.872C95.6007 13.36 95.6167 12.688 95.6167 11.856C95.6167 11.024 95.6007 10.36 95.5687 9.864C95.5367 9.352 95.4487 8.976 95.3047 8.736C95.1767 8.48 94.9367 8.32 94.5847 8.256C94.2487 8.176 93.7847 8.136 93.1927 8.136C92.5847 8.136 92.1127 8.176 91.7767 8.256C91.4407 8.32 91.2007 8.48 91.0567 8.736C90.9127 8.976 90.8247 9.352 90.7927 9.864C90.7767 10.36 90.7687 11.024 90.7687 11.856C90.7687 12.688 90.7767 13.36 90.7927 13.872C90.8247 14.384 90.9127 14.768 91.0567 15.024C91.2007 15.264 91.4407 15.424 91.7767 15.504C92.1127 15.584 92.5847 15.624 93.1927 15.624ZM101.79 22.776V5.76H104.766L104.862 7.296H105.03C105.286 6.816 105.606 6.456 105.99 6.216C106.374 5.96 106.798 5.792 107.262 5.712C107.726 5.616 108.19 5.568 108.654 5.568C109.406 5.568 110.046 5.672 110.574 5.88C111.118 6.072 111.558 6.408 111.894 6.888C112.23 7.352 112.47 7.992 112.614 8.808C112.774 9.624 112.854 10.64 112.854 11.856C112.854 13.072 112.774 14.088 112.614 14.904C112.47 15.72 112.238 16.368 111.918 16.848C111.598 17.328 111.174 17.672 110.646 17.88C110.134 18.088 109.502 18.192 108.75 18.192C108.222 18.192 107.726 18.144 107.262 18.048C106.814 17.968 106.414 17.824 106.062 17.616C105.71 17.392 105.406 17.072 105.15 16.656H104.958V22.776H101.79ZM107.31 15.432C107.838 15.432 108.262 15.4 108.582 15.336C108.902 15.256 109.134 15.104 109.278 14.88C109.438 14.64 109.542 14.288 109.59 13.824C109.638 13.344 109.662 12.696 109.662 11.88C109.662 11.064 109.638 10.416 109.59 9.936C109.542 9.456 109.438 9.104 109.278 8.88C109.134 8.64 108.902 8.488 108.582 8.424C108.262 8.344 107.838 8.304 107.31 8.304C106.734 8.304 106.294 8.384 105.99 8.544C105.686 8.688 105.454 8.92 105.294 9.24C105.15 9.528 105.054 9.896 105.006 10.344C104.974 10.776 104.958 11.288 104.958 11.88C104.958 12.488 104.974 13.008 105.006 13.44C105.054 13.856 105.142 14.208 105.27 14.496C105.43 14.832 105.67 15.072 105.99 15.216C106.31 15.36 106.75 15.432 107.31 15.432Z" fill="white"/>
</svg>
