<svg width="33" height="32" viewBox="0 0 33 32" fill="none" xmlns="http://www.w3.org/2000/svg">
<g id="Ic_chechlist">
<path id="Shape" fill-rule="evenodd" clip-rule="evenodd" d="M3.59766 16.0001C3.59766 9.12723 9.23658 3.55566 16.1926 3.55566C19.5329 3.55566 22.7365 4.86677 25.0985 7.20056C27.4605 9.53434 28.7874 12.6996 28.7874 16.0001C28.7874 22.873 23.1485 28.4446 16.1926 28.4446C9.23658 28.4446 3.59766 22.873 3.59766 16.0001ZM15.827 20.617L22.1244 14.3948C22.6183 13.9068 22.6183 13.1157 22.1244 12.6277C21.6306 12.1397 20.8298 12.1397 20.336 12.6277L14.9328 17.9788L12.0485 15.1166C11.729 14.8009 11.2634 14.6776 10.827 14.7932C10.3906 14.9087 10.0497 15.2455 9.93273 15.6767C9.8158 16.1079 9.94057 16.568 10.26 16.8837L14.0385 20.617C14.275 20.8526 14.5969 20.9851 14.9328 20.9851C15.2686 20.9851 15.5905 20.8526 15.827 20.617Z" fill="#23262F"/>
</g>
</svg>
